<?xml version="1.0" encoding="us-ascii" standalone="no"?><svg xmlns="http://www.w3.org/2000/svg" xmlns:xlink="http://www.w3.org/1999/xlink" contentStyleType="text/css" height="279px" preserveAspectRatio="none" style="width:643px;height:279px;background:#FFFFFF;" version="1.1" viewBox="0 0 643 279" width="643px" zoomAndPan="magnify"><defs/><g><rect fill="#FFFFFF" height="29.1328" style="stroke:#000000;stroke-width:1.0;" width="10" x="293" y="138.6953"/><line style="stroke:#000000;stroke-width:1.0;" x1="42" x2="42" y1="36.2969" y2="244.0938"/><line style="stroke:#000000;stroke-width:1.0;" x1="170" x2="170" y1="36.2969" y2="244.0938"/><line style="stroke:#000000;stroke-width:1.0;" x1="298" x2="298" y1="36.2969" y2="244.0938"/><line style="stroke:#000000;stroke-width:1.0;" x1="509" x2="509" y1="36.2969" y2="244.0938"/><line style="stroke:#000000;stroke-width:1.0;" x1="602" x2="602" y1="36.2969" y2="244.0938"/><rect fill="#FFFFFF" height="30.2969" rx="2.5" ry="2.5" style="stroke:#000000;stroke-width:1.0;" width="44" x="20" y="5"/><text fill="#000000" font-family="Verdana" font-size="14" lengthAdjust="spacing" textLength="30" x="27" y="24.9951">MES</text><rect fill="#FFFFFF" height="30.2969" rx="2.5" ry="2.5" style="stroke:#000000;stroke-width:1.0;" width="44" x="20" y="243.0938"/><text fill="#000000" font-family="Verdana" font-size="14" lengthAdjust="spacing" textLength="30" x="27" y="263.0889">MES</text><rect fill="#FFFFFF" height="30.2969" rx="2.5" ry="2.5" style="stroke:#000000;stroke-width:1.0;" width="70" x="135" y="5"/><text fill="#000000" font-family="Verdana" font-size="14" lengthAdjust="spacing" textLength="56" x="142" y="24.9951">&#20013;&#25511;&#31995;&#32479;</text><rect fill="#FFFFFF" height="30.2969" rx="2.5" ry="2.5" style="stroke:#000000;stroke-width:1.0;" width="70" x="135" y="243.0938"/><text fill="#000000" font-family="Verdana" font-size="14" lengthAdjust="spacing" textLength="56" x="142" y="263.0889">&#20013;&#25511;&#31995;&#32479;</text><rect fill="#FFFFFF" height="30.2969" rx="2.5" ry="2.5" style="stroke:#000000;stroke-width:1.0;" width="70" x="263" y="5"/><text fill="#000000" font-family="Verdana" font-size="14" lengthAdjust="spacing" textLength="56" x="270" y="24.9951">&#25805;&#20316;&#31649;&#29702;</text><rect fill="#FFFFFF" height="30.2969" rx="2.5" ry="2.5" style="stroke:#000000;stroke-width:1.0;" width="70" x="263" y="243.0938"/><text fill="#000000" font-family="Verdana" font-size="14" lengthAdjust="spacing" textLength="56" x="270" y="263.0889">&#25805;&#20316;&#31649;&#29702;</text><rect fill="#FFFFFF" height="30.2969" rx="2.5" ry="2.5" style="stroke:#000000;stroke-width:1.0;" width="56" x="481" y="5"/><text fill="#000000" font-family="Verdana" font-size="14" lengthAdjust="spacing" textLength="42" x="488" y="24.9951">&#26426;&#22120;&#20154;</text><rect fill="#FFFFFF" height="30.2969" rx="2.5" ry="2.5" style="stroke:#000000;stroke-width:1.0;" width="56" x="481" y="243.0938"/><text fill="#000000" font-family="Verdana" font-size="14" lengthAdjust="spacing" textLength="42" x="488" y="263.0889">&#26426;&#22120;&#20154;</text><rect fill="#FFFFFF" height="30.2969" rx="2.5" ry="2.5" style="stroke:#000000;stroke-width:1.0;" width="70" x="567" y="5"/><text fill="#000000" font-family="Verdana" font-size="14" lengthAdjust="spacing" textLength="56" x="574" y="24.9951">&#35774;&#22791;&#31649;&#29702;</text><rect fill="#FFFFFF" height="30.2969" rx="2.5" ry="2.5" style="stroke:#000000;stroke-width:1.0;" width="70" x="567" y="243.0938"/><text fill="#000000" font-family="Verdana" font-size="14" lengthAdjust="spacing" textLength="56" x="574" y="263.0889">&#35774;&#22791;&#31649;&#29702;</text><rect fill="#FFFFFF" height="29.1328" style="stroke:#000000;stroke-width:1.0;" width="10" x="293" y="138.6953"/><polygon fill="#000000" points="158,63.4297,168,67.4297,158,71.4297,162,67.4297" style="stroke:#000000;stroke-width:1.0;"/><line style="stroke:#000000;stroke-width:1.0;stroke-dasharray:2.0,2.0;" x1="42" x2="164" y1="67.4297" y2="67.4297"/><text fill="#000000" font-family="Verdana" font-size="13" lengthAdjust="spacing" textLength="104" x="49" y="62.3638">&#20998;&#21457;&#29983;&#20135;&#20219;&#21153;&#20449;&#24687;</text><line style="stroke:#000000;stroke-width:1.0;stroke-dasharray:2.0,2.0;" x1="170" x2="212" y1="96.5625" y2="96.5625"/><line style="stroke:#000000;stroke-width:1.0;stroke-dasharray:2.0,2.0;" x1="212" x2="212" y1="96.5625" y2="109.5625"/><line style="stroke:#000000;stroke-width:1.0;stroke-dasharray:2.0,2.0;" x1="171" x2="212" y1="109.5625" y2="109.5625"/><polygon fill="#000000" points="181,105.5625,171,109.5625,181,113.5625,177,109.5625" style="stroke:#000000;stroke-width:1.0;"/><text fill="#000000" font-family="Verdana" font-size="13" lengthAdjust="spacing" textLength="104" x="177" y="91.4966">&#25286;&#35299;&#29983;&#20135;&#20219;&#21153;&#20449;&#24687;</text><polygon fill="#000000" points="281,134.6953,291,138.6953,281,142.6953,285,138.6953" style="stroke:#000000;stroke-width:1.0;"/><line style="stroke:#000000;stroke-width:1.0;" x1="170" x2="287" y1="138.6953" y2="138.6953"/><text fill="#000000" font-family="Verdana" font-size="13" lengthAdjust="spacing" textLength="104" x="177" y="133.6294">&#20998;&#21457;&#29983;&#20135;&#20219;&#21153;&#20449;&#24687;</text><polygon fill="#000000" points="497,163.8281,507,167.8281,497,171.8281,501,167.8281" style="stroke:#000000;stroke-width:1.0;"/><line style="stroke:#000000;stroke-width:1.0;" x1="298" x2="503" y1="167.8281" y2="167.8281"/><text fill="#000000" font-family="Verdana" font-size="13" lengthAdjust="spacing" textLength="182" x="305" y="162.7622">&#26681;&#25454;&#29983;&#20135;&#20219;&#21153;&#33050;&#26412;&#24320;&#22987;&#36827;&#34892;&#29983;&#20135;</text><polygon fill="#000000" points="590,192.9609,600,196.9609,590,200.9609,594,196.9609" style="stroke:#000000;stroke-width:1.0;"/><line style="stroke:#000000;stroke-width:1.0;" x1="170" x2="596" y1="196.9609" y2="196.9609"/><text fill="#000000" font-family="Verdana" font-size="13" lengthAdjust="spacing" textLength="78" x="177" y="191.895">&#33719;&#21462;&#35774;&#22791;&#20449;&#24687;</text><polygon fill="#000000" points="181,222.0938,171,226.0938,181,230.0938,177,226.0938" style="stroke:#000000;stroke-width:1.0;"/><line style="stroke:#000000;stroke-width:1.0;" x1="175" x2="601" y1="226.0938" y2="226.0938"/><text fill="#000000" font-family="Verdana" font-size="13" lengthAdjust="spacing" textLength="78" x="187" y="221.0278">&#36820;&#22238;&#35774;&#22791;&#20449;&#24687;</text><!--SRC=[Kop9ICrDLIZ8ISpCu_9r3LRGrRLJUB9ZxRE-vSytxtw-Uxw2bSBJZhQd_HEVJvd_PDVo9xjtF-rQ-6J_mcUDwxcGrG7reMbxrjtsOlbYGjhidatkVR9tplDr2vzFQCDdMM9oIMPPOacg0h86BXJTGCFcx7ewSyMJNRj0zY_O-Qnt7R99BrfcFPkpvkcUXgVBkr_id_rYOGz4bYib5RlfA3u21ioBTVkUBcc7k_L5t_Qd_TCWWb1NegZ03CeN-wSydJqFMGS0]--></g></svg>