<?xml version="1.0" encoding="us-ascii" standalone="no"?><svg xmlns="http://www.w3.org/2000/svg" xmlns:xlink="http://www.w3.org/1999/xlink" contentStyleType="text/css" height="379px" preserveAspectRatio="none" style="width:836px;height:379px;background:#FFFFFF;" version="1.1" viewBox="0 0 836 379" width="836px" zoomAndPan="magnify"><defs/><g><rect fill="#FFFFFF" height="129.5313" style="stroke:#000000;stroke-width:1.0;" width="10" x="293" y="138.6953"/><rect fill="#FFFFFF" height="71.2656" style="stroke:#000000;stroke-width:1.0;" width="10" x="465" y="167.8281"/><line style="stroke:#000000;stroke-width:1.0;" x1="42" x2="42" y1="36.2969" y2="344.4922"/><line style="stroke:#000000;stroke-width:1.0;" x1="170" x2="170" y1="36.2969" y2="344.4922"/><line style="stroke:#000000;stroke-width:1.0;" x1="298" x2="298" y1="36.2969" y2="344.4922"/><line style="stroke:#000000;stroke-width:1.0;" x1="470" x2="470" y1="36.2969" y2="344.4922"/><line style="stroke:#000000;stroke-width:1.0;" x1="702" x2="702" y1="36.2969" y2="344.4922"/><line style="stroke:#000000;stroke-width:1.0;" x1="795" x2="795" y1="36.2969" y2="344.4922"/><rect fill="#FFFFFF" height="30.2969" rx="2.5" ry="2.5" style="stroke:#000000;stroke-width:1.0;" width="44" x="20" y="5"/><text fill="#000000" font-family="Verdana" font-size="14" lengthAdjust="spacing" textLength="30" x="27" y="24.9951">MES</text><rect fill="#FFFFFF" height="30.2969" rx="2.5" ry="2.5" style="stroke:#000000;stroke-width:1.0;" width="44" x="20" y="343.4922"/><text fill="#000000" font-family="Verdana" font-size="14" lengthAdjust="spacing" textLength="30" x="27" y="363.4873">MES</text><rect fill="#FFFFFF" height="30.2969" rx="2.5" ry="2.5" style="stroke:#000000;stroke-width:1.0;" width="70" x="135" y="5"/><text fill="#000000" font-family="Verdana" font-size="14" lengthAdjust="spacing" textLength="56" x="142" y="24.9951">&#20013;&#25511;&#31995;&#32479;</text><rect fill="#FFFFFF" height="30.2969" rx="2.5" ry="2.5" style="stroke:#000000;stroke-width:1.0;" width="70" x="135" y="343.4922"/><text fill="#000000" font-family="Verdana" font-size="14" lengthAdjust="spacing" textLength="56" x="142" y="363.4873">&#20013;&#25511;&#31995;&#32479;</text><rect fill="#FFFFFF" height="30.2969" rx="2.5" ry="2.5" style="stroke:#000000;stroke-width:1.0;" width="70" x="263" y="5"/><text fill="#000000" font-family="Verdana" font-size="14" lengthAdjust="spacing" textLength="56" x="270" y="24.9951">&#25805;&#20316;&#31649;&#29702;</text><rect fill="#FFFFFF" height="30.2969" rx="2.5" ry="2.5" style="stroke:#000000;stroke-width:1.0;" width="70" x="263" y="343.4922"/><text fill="#000000" font-family="Verdana" font-size="14" lengthAdjust="spacing" textLength="56" x="270" y="363.4873">&#25805;&#20316;&#31649;&#29702;</text><rect fill="#FFFFFF" height="30.2969" rx="2.5" ry="2.5" style="stroke:#000000;stroke-width:1.0;" width="42" x="449" y="5"/><text fill="#000000" font-family="Verdana" font-size="14" lengthAdjust="spacing" textLength="28" x="456" y="24.9951">&#25237;&#24433;</text><rect fill="#FFFFFF" height="30.2969" rx="2.5" ry="2.5" style="stroke:#000000;stroke-width:1.0;" width="42" x="449" y="343.4922"/><text fill="#000000" font-family="Verdana" font-size="14" lengthAdjust="spacing" textLength="28" x="456" y="363.4873">&#25237;&#24433;</text><rect fill="#FFFFFF" height="30.2969" rx="2.5" ry="2.5" style="stroke:#000000;stroke-width:1.0;" width="56" x="674" y="5"/><text fill="#000000" font-family="Verdana" font-size="14" lengthAdjust="spacing" textLength="42" x="681" y="24.9951">&#26426;&#22120;&#20154;</text><rect fill="#FFFFFF" height="30.2969" rx="2.5" ry="2.5" style="stroke:#000000;stroke-width:1.0;" width="56" x="674" y="343.4922"/><text fill="#000000" font-family="Verdana" font-size="14" lengthAdjust="spacing" textLength="42" x="681" y="363.4873">&#26426;&#22120;&#20154;</text><rect fill="#FFFFFF" height="30.2969" rx="2.5" ry="2.5" style="stroke:#000000;stroke-width:1.0;" width="70" x="760" y="5"/><text fill="#000000" font-family="Verdana" font-size="14" lengthAdjust="spacing" textLength="56" x="767" y="24.9951">&#35774;&#22791;&#31649;&#29702;</text><rect fill="#FFFFFF" height="30.2969" rx="2.5" ry="2.5" style="stroke:#000000;stroke-width:1.0;" width="70" x="760" y="343.4922"/><text fill="#000000" font-family="Verdana" font-size="14" lengthAdjust="spacing" textLength="56" x="767" y="363.4873">&#35774;&#22791;&#31649;&#29702;</text><rect fill="#FFFFFF" height="129.5313" style="stroke:#000000;stroke-width:1.0;" width="10" x="293" y="138.6953"/><rect fill="#FFFFFF" height="71.2656" style="stroke:#000000;stroke-width:1.0;" width="10" x="465" y="167.8281"/><polygon fill="#000000" points="158,63.4297,168,67.4297,158,71.4297,162,67.4297" style="stroke:#000000;stroke-width:1.0;"/><line style="stroke:#000000;stroke-width:1.0;stroke-dasharray:2.0,2.0;" x1="42" x2="164" y1="67.4297" y2="67.4297"/><text fill="#000000" font-family="Verdana" font-size="13" lengthAdjust="spacing" textLength="104" x="49" y="62.3638">&#20998;&#21457;&#29983;&#20135;&#20219;&#21153;&#20449;&#24687;</text><line style="stroke:#000000;stroke-width:1.0;stroke-dasharray:2.0,2.0;" x1="170" x2="212" y1="96.5625" y2="96.5625"/><line style="stroke:#000000;stroke-width:1.0;stroke-dasharray:2.0,2.0;" x1="212" x2="212" y1="96.5625" y2="109.5625"/><line style="stroke:#000000;stroke-width:1.0;stroke-dasharray:2.0,2.0;" x1="171" x2="212" y1="109.5625" y2="109.5625"/><polygon fill="#000000" points="181,105.5625,171,109.5625,181,113.5625,177,109.5625" style="stroke:#000000;stroke-width:1.0;"/><text fill="#000000" font-family="Verdana" font-size="13" lengthAdjust="spacing" textLength="104" x="177" y="91.4966">&#25286;&#35299;&#29983;&#20135;&#20219;&#21153;&#20449;&#24687;</text><polygon fill="#000000" points="281,134.6953,291,138.6953,281,142.6953,285,138.6953" style="stroke:#000000;stroke-width:1.0;"/><line style="stroke:#000000;stroke-width:1.0;" x1="170" x2="287" y1="138.6953" y2="138.6953"/><text fill="#000000" font-family="Verdana" font-size="13" lengthAdjust="spacing" textLength="104" x="177" y="133.6294">&#20998;&#21457;&#29983;&#20135;&#20219;&#21153;&#20449;&#24687;</text><polygon fill="#000000" points="453,163.8281,463,167.8281,453,171.8281,457,167.8281" style="stroke:#000000;stroke-width:1.0;"/><line style="stroke:#000000;stroke-width:1.0;" x1="303" x2="459" y1="167.8281" y2="167.8281"/><text fill="#000000" font-family="Verdana" font-size="13" lengthAdjust="spacing" textLength="143" x="310" y="162.7622">&#21457;&#36865;&#29983;&#20135;&#24037;&#20316;&#21488;&#25237;&#24433;&#22270;&#32440;</text><line style="stroke:#000000;stroke-width:1.0;stroke-dasharray:2.0,2.0;" x1="475" x2="517" y1="196.9609" y2="196.9609"/><line style="stroke:#000000;stroke-width:1.0;stroke-dasharray:2.0,2.0;" x1="517" x2="517" y1="196.9609" y2="209.9609"/><line style="stroke:#000000;stroke-width:1.0;stroke-dasharray:2.0,2.0;" x1="476" x2="517" y1="209.9609" y2="209.9609"/><polygon fill="#000000" points="486,205.9609,476,209.9609,486,213.9609,482,209.9609" style="stroke:#000000;stroke-width:1.0;"/><text fill="#000000" font-family="Verdana" font-size="13" lengthAdjust="spacing" textLength="208" x="482" y="191.895">&#26681;&#25454;&#21457;&#36865;&#30340;&#22270;&#32440;&#22312;&#24037;&#20316;&#21488;&#19978;&#23436;&#25104;&#25237;&#24433;</text><polygon fill="#000000" points="314,235.0938,304,239.0938,314,243.0938,310,239.0938" style="stroke:#000000;stroke-width:1.0;"/><line style="stroke:#000000;stroke-width:1.0;" x1="308" x2="469" y1="239.0938" y2="239.0938"/><text fill="#000000" font-family="Verdana" font-size="13" lengthAdjust="spacing" textLength="78" x="320" y="234.0278">&#36820;&#22238;&#25237;&#24433;&#32467;&#26524;</text><polygon fill="#000000" points="690,264.2266,700,268.2266,690,272.2266,694,268.2266" style="stroke:#000000;stroke-width:1.0;"/><line style="stroke:#000000;stroke-width:1.0;" x1="298" x2="696" y1="268.2266" y2="268.2266"/><text fill="#000000" font-family="Verdana" font-size="13" lengthAdjust="spacing" textLength="182" x="305" y="263.1606">&#26681;&#25454;&#29983;&#20135;&#20219;&#21153;&#33050;&#26412;&#24320;&#22987;&#36827;&#34892;&#29983;&#20135;</text><polygon fill="#000000" points="783,293.3594,793,297.3594,783,301.3594,787,297.3594" style="stroke:#000000;stroke-width:1.0;"/><line style="stroke:#000000;stroke-width:1.0;" x1="170" x2="789" y1="297.3594" y2="297.3594"/><text fill="#000000" font-family="Verdana" font-size="13" lengthAdjust="spacing" textLength="78" x="177" y="292.2935">&#33719;&#21462;&#35774;&#22791;&#20449;&#24687;</text><polygon fill="#000000" points="181,322.4922,171,326.4922,181,330.4922,177,326.4922" style="stroke:#000000;stroke-width:1.0;"/><line style="stroke:#000000;stroke-width:1.0;" x1="175" x2="794" y1="326.4922" y2="326.4922"/><text fill="#000000" font-family="Verdana" font-size="13" lengthAdjust="spacing" textLength="78" x="187" y="321.4263">&#36820;&#22238;&#35774;&#22791;&#20449;&#24687;</text><!--SRC=[XP9DJiCm48NtFeKvG2_GHNSiMN62229H2H2BY7KhLQ5AVzAg1Od6Qea0fGi881ODCMqkux7DBJ2uhUnKWfMbcNcV_TvuppjnprnySUhKpz71_Y6kL6gOPS-yduXtAkWCLp6qVGY7OZnZUS8eXI1cHSoRByYSKxgIZ7TycTp_9wlnKOyjYKXZCV3_kimvykgNZkTYKu0ijO85rx1yKvHm-DLeQWei7jK8XA-w2T5Av9c1-wqYVVpOtp3utGVlfMlIfALrGEPR7ii2IBkyFIWXB4jLB8inH5FT57J4fmGTkplNbtoG76xdBC_nvXrc8h8ruUG9FXkGT6GHoRYhknRNJCdQZ5gmJ5VmSBNDNFON4DxeuZfjQsBtIsXFfk8R]--></g></svg>