<?xml version="1.0" encoding="us-ascii" standalone="no"?><svg xmlns="http://www.w3.org/2000/svg" xmlns:xlink="http://www.w3.org/1999/xlink" contentStyleType="text/css" height="451px" preserveAspectRatio="none" style="width:908px;height:451px;background:#FFFFFF;" version="1.1" viewBox="0 0 908 451" width="908px" zoomAndPan="magnify"><defs/><g><rect fill="#FFFFFF" height="134.5313" style="stroke:#000000;stroke-width:1.0;" width="10" x="293" y="204.9609"/><rect fill="#FFFFFF" height="71.2656" style="stroke:#000000;stroke-width:1.0;" width="10" x="537" y="239.0938"/><line style="stroke:#000000;stroke-width:1.0;" x1="42" x2="42" y1="36.2969" y2="415.7578"/><line style="stroke:#000000;stroke-width:1.0;" x1="170" x2="170" y1="36.2969" y2="415.7578"/><line style="stroke:#000000;stroke-width:1.0;" x1="298" x2="298" y1="36.2969" y2="415.7578"/><line style="stroke:#000000;stroke-width:1.0;" x1="398" x2="398" y1="36.2969" y2="415.7578"/><line style="stroke:#000000;stroke-width:1.0;" x1="542" x2="542" y1="36.2969" y2="415.7578"/><line style="stroke:#000000;stroke-width:1.0;" x1="774" x2="774" y1="36.2969" y2="415.7578"/><line style="stroke:#000000;stroke-width:1.0;" x1="867" x2="867" y1="36.2969" y2="415.7578"/><rect fill="#FFFFFF" height="30.2969" rx="2.5" ry="2.5" style="stroke:#000000;stroke-width:1.0;" width="44" x="20" y="5"/><text fill="#000000" font-family="Verdana" font-size="14" lengthAdjust="spacing" textLength="30" x="27" y="24.9951">MES</text><rect fill="#FFFFFF" height="30.2969" rx="2.5" ry="2.5" style="stroke:#000000;stroke-width:1.0;" width="44" x="20" y="414.7578"/><text fill="#000000" font-family="Verdana" font-size="14" lengthAdjust="spacing" textLength="30" x="27" y="434.7529">MES</text><rect fill="#FFFFFF" height="30.2969" rx="2.5" ry="2.5" style="stroke:#000000;stroke-width:1.0;" width="70" x="135" y="5"/><text fill="#000000" font-family="Verdana" font-size="14" lengthAdjust="spacing" textLength="56" x="142" y="24.9951">&#20013;&#25511;&#31995;&#32479;</text><rect fill="#FFFFFF" height="30.2969" rx="2.5" ry="2.5" style="stroke:#000000;stroke-width:1.0;" width="70" x="135" y="414.7578"/><text fill="#000000" font-family="Verdana" font-size="14" lengthAdjust="spacing" textLength="56" x="142" y="434.7529">&#20013;&#25511;&#31995;&#32479;</text><rect fill="#FFFFFF" height="30.2969" rx="2.5" ry="2.5" style="stroke:#000000;stroke-width:1.0;" width="70" x="263" y="5"/><text fill="#000000" font-family="Verdana" font-size="14" lengthAdjust="spacing" textLength="56" x="270" y="24.9951">&#25805;&#20316;&#31649;&#29702;</text><rect fill="#FFFFFF" height="30.2969" rx="2.5" ry="2.5" style="stroke:#000000;stroke-width:1.0;" width="70" x="263" y="414.7578"/><text fill="#000000" font-family="Verdana" font-size="14" lengthAdjust="spacing" textLength="56" x="270" y="434.7529">&#25805;&#20316;&#31649;&#29702;</text><rect fill="#FFFFFF" height="30.2969" rx="2.5" ry="2.5" style="stroke:#000000;stroke-width:1.0;" width="70" x="363" y="5"/><text fill="#000000" font-family="Verdana" font-size="14" lengthAdjust="spacing" textLength="56" x="370" y="24.9951">&#22823;&#23631;&#23637;&#31034;</text><rect fill="#FFFFFF" height="30.2969" rx="2.5" ry="2.5" style="stroke:#000000;stroke-width:1.0;" width="70" x="363" y="414.7578"/><text fill="#000000" font-family="Verdana" font-size="14" lengthAdjust="spacing" textLength="56" x="370" y="434.7529">&#22823;&#23631;&#23637;&#31034;</text><rect fill="#FFFFFF" height="30.2969" rx="2.5" ry="2.5" style="stroke:#000000;stroke-width:1.0;" width="42" x="521" y="5"/><text fill="#000000" font-family="Verdana" font-size="14" lengthAdjust="spacing" textLength="28" x="528" y="24.9951">&#25237;&#24433;</text><rect fill="#FFFFFF" height="30.2969" rx="2.5" ry="2.5" style="stroke:#000000;stroke-width:1.0;" width="42" x="521" y="414.7578"/><text fill="#000000" font-family="Verdana" font-size="14" lengthAdjust="spacing" textLength="28" x="528" y="434.7529">&#25237;&#24433;</text><rect fill="#FFFFFF" height="30.2969" rx="2.5" ry="2.5" style="stroke:#000000;stroke-width:1.0;" width="56" x="746" y="5"/><text fill="#000000" font-family="Verdana" font-size="14" lengthAdjust="spacing" textLength="42" x="753" y="24.9951">&#26426;&#22120;&#20154;</text><rect fill="#FFFFFF" height="30.2969" rx="2.5" ry="2.5" style="stroke:#000000;stroke-width:1.0;" width="56" x="746" y="414.7578"/><text fill="#000000" font-family="Verdana" font-size="14" lengthAdjust="spacing" textLength="42" x="753" y="434.7529">&#26426;&#22120;&#20154;</text><rect fill="#FFFFFF" height="30.2969" rx="2.5" ry="2.5" style="stroke:#000000;stroke-width:1.0;" width="70" x="832" y="5"/><text fill="#000000" font-family="Verdana" font-size="14" lengthAdjust="spacing" textLength="56" x="839" y="24.9951">&#35774;&#22791;&#31649;&#29702;</text><rect fill="#FFFFFF" height="30.2969" rx="2.5" ry="2.5" style="stroke:#000000;stroke-width:1.0;" width="70" x="832" y="414.7578"/><text fill="#000000" font-family="Verdana" font-size="14" lengthAdjust="spacing" textLength="56" x="839" y="434.7529">&#35774;&#22791;&#31649;&#29702;</text><rect fill="#FFFFFF" height="134.5313" style="stroke:#000000;stroke-width:1.0;" width="10" x="293" y="204.9609"/><rect fill="#FFFFFF" height="71.2656" style="stroke:#000000;stroke-width:1.0;" width="10" x="537" y="239.0938"/><polygon fill="#000000" points="158,63.4297,168,67.4297,158,71.4297,162,67.4297" style="stroke:#000000;stroke-width:1.0;"/><line style="stroke:#000000;stroke-width:1.0;stroke-dasharray:2.0,2.0;" x1="42" x2="164" y1="67.4297" y2="67.4297"/><text fill="#000000" font-family="Verdana" font-size="13" lengthAdjust="spacing" textLength="104" x="49" y="62.3638">&#20998;&#21457;&#29983;&#20135;&#20219;&#21153;&#20449;&#24687;</text><line style="stroke:#000000;stroke-width:1.0;stroke-dasharray:2.0,2.0;" x1="170" x2="212" y1="96.5625" y2="96.5625"/><line style="stroke:#000000;stroke-width:1.0;stroke-dasharray:2.0,2.0;" x1="212" x2="212" y1="96.5625" y2="109.5625"/><line style="stroke:#000000;stroke-width:1.0;stroke-dasharray:2.0,2.0;" x1="171" x2="212" y1="109.5625" y2="109.5625"/><polygon fill="#000000" points="181,105.5625,171,109.5625,181,113.5625,177,109.5625" style="stroke:#000000;stroke-width:1.0;"/><text fill="#000000" font-family="Verdana" font-size="13" lengthAdjust="spacing" textLength="104" x="177" y="91.4966">&#25286;&#35299;&#29983;&#20135;&#20219;&#21153;&#20449;&#24687;</text><polygon fill="#000000" points="286,134.6953,296,138.6953,286,142.6953,290,138.6953" style="stroke:#000000;stroke-width:1.0;"/><line style="stroke:#000000;stroke-width:1.0;" x1="170" x2="292" y1="138.6953" y2="138.6953"/><text fill="#000000" font-family="Verdana" font-size="13" lengthAdjust="spacing" textLength="104" x="177" y="133.6294">&#20998;&#21457;&#29983;&#20135;&#20219;&#21153;&#20449;&#24687;</text><polygon fill="#000000" points="386,163.8281,396,167.8281,386,171.8281,390,167.8281" style="stroke:#000000;stroke-width:1.0;"/><line style="stroke:#000000;stroke-width:1.0;" x1="170" x2="392" y1="167.8281" y2="167.8281"/><text fill="#000000" font-family="Verdana" font-size="13" lengthAdjust="spacing" textLength="104" x="177" y="162.7622">&#20998;&#21457;&#29983;&#20135;&#20219;&#21153;&#20449;&#24687;</text><line style="stroke:#000000;stroke-width:1.0;" x1="398" x2="445" y1="191.9609" y2="191.9609"/><line style="stroke:#000000;stroke-width:1.0;" x1="445" x2="445" y1="191.9609" y2="204.9609"/><line style="stroke:#000000;stroke-width:1.0;" x1="404" x2="445" y1="204.9609" y2="204.9609"/><polygon fill="#000000" points="414,200.9609,404,204.9609,414,208.9609,410,204.9609" style="stroke:#000000;stroke-width:1.0;"/><text fill="#000000" font-family="Verdana" font-size="13" lengthAdjust="spacing" textLength="130" x="410" y="186.895">&#36718;&#25773;&#23637;&#31034;&#29983;&#20135;&#20219;&#21153;&#20449;&#24687;</text><polygon fill="#000000" points="525,235.0938,535,239.0938,525,243.0938,529,239.0938" style="stroke:#000000;stroke-width:1.0;"/><line style="stroke:#000000;stroke-width:1.0;" x1="303" x2="531" y1="239.0938" y2="239.0938"/><text fill="#000000" font-family="Verdana" font-size="13" lengthAdjust="spacing" textLength="143" x="310" y="234.0278">&#21457;&#36865;&#29983;&#20135;&#24037;&#20316;&#21488;&#25237;&#24433;&#22270;&#32440;</text><line style="stroke:#000000;stroke-width:1.0;stroke-dasharray:2.0,2.0;" x1="547" x2="589" y1="268.2266" y2="268.2266"/><line style="stroke:#000000;stroke-width:1.0;stroke-dasharray:2.0,2.0;" x1="589" x2="589" y1="268.2266" y2="281.2266"/><line style="stroke:#000000;stroke-width:1.0;stroke-dasharray:2.0,2.0;" x1="548" x2="589" y1="281.2266" y2="281.2266"/><polygon fill="#000000" points="558,277.2266,548,281.2266,558,285.2266,554,281.2266" style="stroke:#000000;stroke-width:1.0;"/><text fill="#000000" font-family="Verdana" font-size="13" lengthAdjust="spacing" textLength="208" x="554" y="263.1606">&#26681;&#25454;&#21457;&#36865;&#30340;&#22270;&#32440;&#22312;&#24037;&#20316;&#21488;&#19978;&#23436;&#25104;&#25237;&#24433;</text><polygon fill="#000000" points="314,306.3594,304,310.3594,314,314.3594,310,310.3594" style="stroke:#000000;stroke-width:1.0;"/><line style="stroke:#000000;stroke-width:1.0;" x1="308" x2="541" y1="310.3594" y2="310.3594"/><text fill="#000000" font-family="Verdana" font-size="13" lengthAdjust="spacing" textLength="78" x="320" y="305.2935">&#36820;&#22238;&#25237;&#24433;&#32467;&#26524;</text><polygon fill="#000000" points="762,335.4922,772,339.4922,762,343.4922,766,339.4922" style="stroke:#000000;stroke-width:1.0;"/><line style="stroke:#000000;stroke-width:1.0;" x1="298" x2="768" y1="339.4922" y2="339.4922"/><text fill="#000000" font-family="Verdana" font-size="13" lengthAdjust="spacing" textLength="182" x="305" y="334.4263">&#26681;&#25454;&#29983;&#20135;&#20219;&#21153;&#33050;&#26412;&#24320;&#22987;&#36827;&#34892;&#29983;&#20135;</text><polygon fill="#000000" points="855,364.625,865,368.625,855,372.625,859,368.625" style="stroke:#000000;stroke-width:1.0;"/><line style="stroke:#000000;stroke-width:1.0;" x1="170" x2="861" y1="368.625" y2="368.625"/><text fill="#000000" font-family="Verdana" font-size="13" lengthAdjust="spacing" textLength="78" x="177" y="363.5591">&#33719;&#21462;&#35774;&#22791;&#20449;&#24687;</text><polygon fill="#000000" points="181,393.7578,171,397.7578,181,401.7578,177,397.7578" style="stroke:#000000;stroke-width:1.0;"/><line style="stroke:#000000;stroke-width:1.0;" x1="175" x2="866" y1="397.7578" y2="397.7578"/><text fill="#000000" font-family="Verdana" font-size="13" lengthAdjust="spacing" textLength="78" x="187" y="392.6919">&#36820;&#22238;&#35774;&#22791;&#20449;&#24687;</text><!--SRC=[ZL9BJiCm5Dpd5EO0lG2Bx5YouWGHHA8I81OHwrQgGfL-qj8MYIPgYGXA5pGGiMX8I7CPFzlS0XUNoaaGiBBiDpDltlZj6QVwkOukpxJwXN9uS8HgDHNXU4dw0NrDQJf7-mZQ9jX3EfxZ9C1f2fQ7SuyqdnKPntab6kcOB7ZuYwQIKGzdBWqzEZ3_tKm5Fu38XcX2_UGtbeohi5WMafkbkFx0rOwD-fLcw4Ysg1JySllM1BA8Ex277uscK87L8uU0_IAAuAnf4ajoNw-AE3Q1VskG-pVI2xTAqvRWWRlOwU7OWh1BseEIH254FbS-1cScYZGTaPchdEYLzgKvt0Jk5ZZPv29yo8cmrfIuJ_3UWA33SeTvNL4jwCef5NQ1hnGBr-1VxtwPzLTWtuh7RTe5H7K9nKmounC0]--></g></svg>